<?xml version="1.0" encoding="UTF-8"?>
<!DOCTYPE svg PUBLIC "-//W3C//DTD SVG 1.1//EN" "http://www.w3.org/Graphics/SVG/1.1/DTD/svg11.dtd">
<!-- Creator: CorelDRAW X6 -->
<svg xmlns="http://www.w3.org/2000/svg" xml:space="preserve" width="279.4mm" height="215.9mm" version="1.1" style="shape-rendering:geometricPrecision; text-rendering:geometricPrecision; image-rendering:optimizeQuality; fill-rule:evenodd; clip-rule:evenodd"
viewBox="0 0 27940 21590"
 xmlns:xlink="http://www.w3.org/1999/xlink">
 <defs>
  <style type="text/css">
   <![CDATA[
    .str0 {stroke:#FEFEFE;stroke-width:242.21;stroke-linecap:round;stroke-linejoin:round}
    .str1 {stroke:#026DBA;stroke-width:804.55;stroke-linecap:round;stroke-linejoin:round}
    .fil0 {fill:none;fill-rule:nonzero}
    .fil2 {fill:#FEFEFE}
    .fil3 {fill:#026DBA}
    .fil4 {fill:#FEFEFE;fill-rule:nonzero}
    .fil1 {fill:#026DBA;fill-rule:nonzero}
   ]]>
  </style>
 </defs>
 <g id="Capa_x0020_1">
  <metadata id="CorelCorpID_0Corel-Layer"/>
  <g id="_156366912">
   <g>
    <path class="fil0 str0" d="M14078 13856l0 -877 -2575 0 0 877 648 0 0 5125c0,0 1264,0 1264,-703l0 -4422 663 0z"/>
   </g>
   <g>
    <path id="1" class="fil0 str0" d="M17000 15364c0,-861 -1540,-892 -1540,-892 -845,0 -1382,324 -1382,324l0 3293c0,861 1540,892 1540,892 845,0 1382,-324 1382,-324l0 -3293zm-1264 2977c-166,8 -395,-39 -395,-269l0 -2961c166,-8 395,39 395,269l0 2961z"/>
   </g>
   <g>
    <path id="2" class="fil0 str0" d="M20474 15364c0,-861 -1540,-892 -1540,-892 -845,0 -1382,324 -1382,324l0 3293c0,861 1540,892 1540,892 845,0 1382,-324 1382,-324l0 -3293zm-1264 2977c-166,8 -395,-39 -395,-269l0 -2961c166,-8 395,39 395,269l0 2961z"/>
   </g>
   <g>
    <path id="3" class="fil0 str0" d="M22291 12821l-1264 0 0 6160c0,0 1264,-8 1264,-703l0 -5457z"/>
   </g>
   <g>
    <path id="4" class="fil0 str0" d="M24392 15696c0,0 1185,-87 1185,-600l0 -371c0,0 -505,-253 -1271,-253 -505,0 -1540,158 -1540,1114 0,1058 1548,1414 1548,2377 0,316 -190,411 -340,426l0 -766c0,0 -1248,47 -1248,561l0 513c0,0 545,284 1271,284 561,0 1658,-166 1658,-1240 0,-1169 -1627,-1658 -1627,-2306 0,-284 253,-411 363,-411l0 671z"/>
   </g>
   <path id="5" class="fil1" d="M14078 13856l0 -877 -2575 0 0 877 648 0 0 5125c0,0 1264,0 1264,-703l0 -4422 663 0z"/>
   <path id="6" class="fil1" d="M17000 15364c0,-861 -1540,-892 -1540,-892 -845,0 -1382,324 -1382,324l0 3293c0,861 1540,892 1540,892 845,0 1382,-324 1382,-324l0 -3293zm-1264 2977c-166,8 -395,-39 -395,-269l0 -2961c166,-8 395,39 395,269l0 2961z"/>
   <path id="7" class="fil1" d="M20474 15364c0,-861 -1540,-892 -1540,-892 -845,0 -1382,324 -1382,324l0 3293c0,861 1540,892 1540,892 845,0 1382,-324 1382,-324l0 -3293zm-1264 2977c-166,8 -395,-39 -395,-269l0 -2961c166,-8 395,39 395,269l0 2961z"/>
   <path id="8" class="fil1" d="M22291 12821l-1264 0 0 6160c0,0 1264,-8 1264,-703l0 -5457z"/>
   <path id="9" class="fil1" d="M24392 15696c0,0 1185,-87 1185,-600l0 -371c0,0 -505,-253 -1271,-253 -505,0 -1540,158 -1540,1114 0,1058 1548,1414 1548,2377 0,316 -190,411 -340,426l0 -766c0,0 -1248,47 -1248,561l0 513c0,0 545,284 1271,284 561,0 1658,-166 1658,-1240 0,-1169 -1627,-1658 -1627,-2306 0,-284 253,-411 363,-411l0 671z"/>
   <g>
    <g>
     <path class="fil2" d="M4432 16154c-50,-469 319,-915 803,-952 513,-39 908,337 953,797 49,511 -343,924 -804,960 -486,38 -898,-302 -951,-805zm3209 -505c-9,-84 -45,-202 -69,-281 -77,-250 -208,-499 -355,-695 -25,-33 -49,-64 -76,-97 -57,-70 -70,-81 -125,-139l-86 -86c-20,-23 -29,-26 -48,-44 -19,-18 -30,-25 -46,-40 -16,-15 -30,-26 -47,-39 -716,-574 -1723,-685 -2554,-259 -103,53 -234,130 -324,199 -132,101 -211,165 -326,289 -13,14 -28,28 -42,44 -258,293 -456,653 -541,1037 -133,606 -50,1198 253,1725 98,171 241,359 381,497 32,31 57,52 92,85 171,164 421,311 640,410 340,154 774,225 1194,181 403,-42 751,-183 1035,-366 202,-130 177,-135 296,-227 61,-48 215,-219 258,-270 201,-238 357,-557 446,-864 10,-36 18,-40 -5,-68 -27,-32 -47,-66 -73,-99l-743 -1008c-25,-33 -48,-69 -75,-103 -25,-32 -47,-66 -73,-99 -26,-34 -52,-69 -76,-102 -83,-113 22,-173 75,-221 27,-25 62,-62 122,-54 44,5 75,38 113,68 65,53 131,103 194,156l96 77c17,13 30,25 48,39 18,14 31,26 50,41 103,80 315,259 393,313z"/>
     <path class="fil2" d="M10372 13507c-72,12 -123,-32 -134,-89 -27,-145 197,-178 224,-41 13,66 -36,121 -90,130zm-10 5309c-157,23 -181,-198 -39,-217 155,-21 179,197 39,217zm-3702 -5380c-35,-144 180,-190 219,-59 44,148 -185,197 -219,59zm-12 5300c-27,-141 196,-181 224,-40 13,66 -36,119 -90,129 -69,12 -124,-33 -135,-89zm-3098 -4680l151 -119c389,-298 880,-485 1386,-528 535,-45 1099,77 1553,343l169 103 510 -417c36,-31 33,-29 74,-28 411,2 2234,-23 2272,-7l77 75c58,56 113,127 177,184l126 133c10,11 19,16 29,26 35,35 65,68 98,105 34,37 70,66 104,104 61,69 49,35 49,158 3,1169 2,2343 9,3512 0,68 1,135 1,203 0,140 11,96 -98,211l-201 215c-60,66 -214,221 -254,269l-100 108c-24,26 -40,18 -82,17l-1548 -6c-137,-1 -274,-2 -411,-2 -69,0 -139,0 -208,0 -112,0 -86,2 -156,-52 -103,-80 -308,-240 -412,-314 -21,-15 -38,-32 -60,-42 -151,94 -217,138 -387,216 -132,61 -297,121 -451,158 -681,164 -1397,76 -1996,-276 -188,-111 -282,-184 -443,-319l-79 -73c-11,-10 -28,-29 -37,-39 -66,-64 -120,-128 -179,-197 -103,-120 -227,-317 -302,-460 -192,-367 -298,-772 -302,-1221 -3,-379 72,-702 194,-1019 60,-155 174,-363 265,-496l96 -133c26,-35 88,-105 100,-128l-170 -165c-26,-30 -47,-77 -31,-132 14,-47 108,-153 170,-165 52,-11 95,7 124,34 56,52 116,120 171,165zm-978 -617c-45,-140 174,-202 218,-64 21,66 -24,122 -74,137 -69,21 -127,-22 -144,-72zm-7 5309c-24,-67 22,-124 74,-139 68,-19 127,22 142,72 41,137 -165,208 -216,66zm7833 232c119,-7 210,-101 216,-220 7,-140 0,-299 0,-441 0,-1614 0,-3227 0,-4841 0,-168 1,-252 -110,-324 -81,-53 -293,-34 -406,-34l-7041 0c-140,0 -298,-7 -436,0 -118,6 -215,100 -218,221 -5,144 0,297 0,442 0,1614 0,3227 0,4841 0,63 -7,150 13,205 70,198 305,153 505,153l7041 0c139,0 300,8 437,-1z"/>
     <path class="fil2" d="M7340 18068c20,32 128,116 164,152 61,62 60,55 101,54l1701 7c198,1 134,22 235,-73 106,-99 207,-203 316,-309 56,-55 64,-49 63,-94 0,-51 0,-102 -1,-153l-11 -1538c-1,-88 10,-96 -24,-132 -96,-98 -68,-94 -147,-93l-695 2c-145,1 -94,-10 -173,60 -65,58 -47,42 -49,184l-5 462c0,48 7,48 -50,103 -28,27 -54,49 -82,75 -26,24 -49,51 -76,76l-476 458c-101,88 -213,211 -316,303 -24,21 -51,54 -78,79l-238 224c-29,27 -51,55 -78,79 -27,23 -54,54 -79,72z"/>
     <path class="fil2" d="M9108 15507l467 3c47,0 114,5 158,1 35,-3 51,-40 85,-76l77 -80c22,-26 12,-99 13,-142l4 -842c-4,-21 -152,-160 -177,-185l-269 -269c-26,-26 -74,-84 -99,-84l-1843 0c-16,6 -45,45 -60,61l-140 164c-9,12 -20,20 -27,33 30,38 315,294 361,344 57,62 150,138 206,195l310 294c18,17 31,35 50,51l158 147c16,14 34,38 50,52 73,64 137,131 205,196l104 98c56,49 31,36 165,37 68,0 135,1 203,1z"/>
     <path class="fil2" d="M5366 15789c143,28 269,169 234,347 -28,145 -167,271 -348,235 -84,-17 -143,-63 -181,-113 -158,-214 26,-522 295,-469zm-819 346c10,149 70,305 157,414 149,185 371,311 660,294 403,-23 742,-385 707,-824 -32,-397 -380,-736 -819,-701 -404,32 -734,374 -705,817z"/>
     <path class="fil2" d="M8118 17157c18,-10 232,-233 267,-268 46,-46 88,-89 133,-136 19,-20 49,-45 67,-64 21,-22 52,-47 67,-71l-1859 -1497c-12,-9 -21,-17 -31,-25 -13,-10 -21,-16 -29,-22 -9,5 -83,68 -92,78 10,27 151,207 180,250 30,44 61,82 93,125l277 377c259,354 527,709 784,1064l142 189z"/>
     <path class="fil2" d="M5133 16102c14,93 93,172 203,156 92,-13 167,-98 151,-207 -35,-230 -387,-175 -354,51z"/>
    </g>
    <g>
     <path class="fil3" d="M10397 18980c-136,8 -297,1 -437,1l-7041 0c-199,0 -435,45 -505,-153 -20,-55 -13,-142 -13,-205 0,-1614 0,-3227 0,-4841 0,-145 -5,-297 0,-442 4,-120 100,-214 218,-221 138,-7 296,0 436,0l7041 0c113,0 325,-19 406,34 112,73 110,157 110,324 0,1614 0,3227 0,4841 0,142 7,302 0,441 -6,119 -97,213 -216,220zm-7788 120l7800 0c22,-9 64,-3 123,-33 38,-20 92,-53 116,-87 29,-42 54,-63 72,-132 3,-12 8,-55 13,-65l0 -5465c-7,-16 -9,-102 -64,-171 -7,-9 -13,-15 -19,-22 -36,-51 -109,-95 -169,-110 -17,-4 -49,-7 -68,-13l-7807 0c-61,22 -141,1 -254,142 -58,73 -54,133 -66,160l0 5494c8,17 9,44 16,63 37,112 130,201 245,228 17,4 49,6 64,11z"/>
     <g>
      <path class="fil3" d="M7340 18068c26,-19 53,-49 79,-72 28,-24 49,-52 78,-79l238 -224c27,-26 55,-58 78,-79 103,-92 215,-215 316,-303l476 -458c27,-25 50,-52 76,-76 28,-27 54,-49 82,-75 57,-55 50,-55 50,-103l5 -462c2,-142 -16,-125 49,-184 79,-70 28,-60 173,-60l695 -2c79,0 52,-5 147,93 35,35 24,44 24,132l11 1538c0,51 0,102 1,153 0,45 -7,39 -63,94 -108,105 -210,209 -316,309 -101,95 -38,74 -235,73l-1701 -7c-41,0 -40,8 -101,-54 -36,-37 -144,-121 -164,-152zm1767 -2562c-68,0 -135,-1 -203,-1 -133,-1 -108,12 -165,-37l-104 -98c-68,-65 -133,-132 -205,-196 -16,-14 -34,-38 -50,-52l-158 -147c-19,-16 -32,-34 -50,-51l-310 -294c-55,-57 -149,-133 -206,-195 -46,-50 -330,-307 -361,-344 7,-13 18,-21 27,-33l140 -164c15,-16 45,-55 60,-61l1843 0c25,0 73,58 99,84l269 269c25,25 173,164 177,185l-4 842c0,43 10,116 -13,142l-77 80c-33,36 -50,73 -85,76 -44,4 -111,-1 -158,-1l-467 -3zm-1132 1461c-257,-354 -524,-709 -784,-1064l-277 -377c-32,-44 -63,-82 -93,-125 -29,-43 -170,-223 -180,-250 8,-10 83,-73 92,-78 8,7 16,12 29,22 10,8 19,16 31,25l1859 1497c-15,24 -46,49 -67,71 -19,20 -48,44 -67,64 -45,47 -88,90 -133,136 -34,35 -249,258 -267,268l-142 -189zm-336 -1319c-78,-54 -290,-233 -393,-313 -19,-15 -33,-27 -50,-41 -18,-13 -31,-25 -48,-39l-96 -77c-63,-54 -129,-104 -194,-156 -37,-30 -69,-62 -113,-68 -60,-7 -94,29 -122,54 -53,48 -158,109 -75,221 24,33 49,68 76,102 26,33 48,67 73,99 27,34 50,70 75,103l743 1008c26,33 47,67 73,99 23,28 16,32 5,68 -88,306 -245,626 -446,864 -43,51 -197,222 -258,270 -119,92 -94,97 -296,227 -284,183 -632,324 -1035,366 -420,44 -854,-27 -1194,-181 -220,-99 -469,-246 -640,-410 -35,-34 -61,-54 -92,-85 -140,-139 -283,-326 -381,-497 -303,-527 -386,-1119 -253,-1725 85,-384 283,-744 541,-1037 14,-16 29,-30 42,-44 114,-124 193,-187 326,-289 90,-69 220,-146 324,-199 831,-426 1838,-315 2554,259 17,13 31,25 47,39 16,15 27,22 46,40 19,18 28,21 48,44l86 86c56,58 69,68 125,139 26,33 51,64 76,97 147,196 277,445 355,695 25,79 60,197 69,281zm-4091 -1593c-55,-44 -115,-113 -171,-165 -29,-27 -72,-45 -124,-34 -61,13 -155,118 -170,165 -17,55 4,102 31,132l170 165c-12,23 -75,92 -100,128l-96 133c-91,133 -205,341 -265,496 -122,317 -197,641 -194,1019 4,450 109,854 302,1221 75,143 199,340 302,460 59,69 113,133 179,197 10,10 27,28 37,39l79 73c160,135 254,208 443,319 599,352 1315,440 1996,276 154,-37 319,-97 451,-158 170,-79 236,-123 387,-216 22,10 39,27 60,42 104,74 309,234 412,314 70,54 44,51 156,52 69,0 139,0 208,0 137,1 274,1 411,2l1548 6c43,0 59,9 82,-17l100 -108c40,-48 194,-203 254,-269l201 -215c109,-115 98,-71 98,-211 0,-68 -1,-135 -1,-203 -7,-1168 -6,-2343 -9,-3512 0,-123 11,-89 -49,-158 -33,-38 -70,-67 -104,-104 -33,-37 -64,-69 -98,-105 -10,-11 -19,-16 -29,-26l-126 -133c-64,-57 -119,-128 -177,-184l-77 -75c-38,-15 -1861,9 -2272,7 -40,0 -38,-2 -74,28l-510 417 -169 -103c-455,-267 -1018,-389 -1553,-343 -506,43 -997,231 -1386,528l-151 119z"/>
      <path class="fil3" d="M4547 16135c-29,-443 302,-785 705,-817 439,-35 788,304 819,701 35,438 -305,800 -707,824 -288,17 -511,-109 -660,-294 -88,-109 -148,-265 -157,-414zm-116 19c53,504 465,843 951,805 461,-36 854,-449 804,-960 -45,-460 -440,-837 -953,-797 -483,37 -853,483 -803,952z"/>
      <path class="fil3" d="M5133 16102c-34,-226 319,-281 354,-51 17,109 -59,194 -151,207 -111,16 -189,-63 -203,-156zm234 -313c-269,-53 -453,255 -295,469 37,51 97,97 181,113 182,36 320,-90 348,-235 35,-179 -91,-319 -234,-347z"/>
      <path class="fil3" d="M10361 18816c139,-21 116,-238 -39,-217 -141,19 -118,240 39,217z"/>
      <path class="fil3" d="M10372 13507c54,-9 103,-63 90,-130 -26,-138 -250,-104 -224,41 11,57 62,101 134,89z"/>
      <path class="fil3" d="M2571 13439c16,51 74,93 144,72 50,-15 96,-71 74,-137 -44,-138 -263,-76 -218,64z"/>
      <path class="fil3" d="M6647 18736c11,57 65,101 135,89 54,-9 103,-62 90,-129 -28,-142 -251,-101 -224,40z"/>
      <path class="fil3" d="M6659 13436c34,138 262,90 219,-59 -39,-132 -254,-85 -219,59z"/>
      <path class="fil3" d="M2564 18747c51,141 257,71 216,-66 -15,-51 -74,-92 -142,-72 -52,15 -98,71 -74,139z"/>
     </g>
    </g>
   </g>
   <g>
    <path class="fil0 str1" d="M4461 7842l597 0 0 4145c0,0 1911,-24 1911,-1063l0 -8016 -1911 0 0 3930 -597 0 0 -4169c0,0 -1911,24 -1911,1075l0 8028 1911 0 0 -3930zm5256 -36c382,0 597,0 597,358l0 3823c0,0 1911,-24 1911,-1063l0 -2783c0,-335 -430,-812 -824,-812 299,0 824,-550 824,-896l0 -2317c0,-1445 -1840,-1374 -2329,-1374 -1278,0 -2091,502 -2091,502l0 8505 1911 0 0 -3942zm597 -1422c0,490 -155,466 -597,466l0 -3130c251,0 597,72 597,418l0 2246zm4539 -251c251,-12 597,60 597,406l0 1218c-72,-84 -299,-131 -418,-131 -1147,0 -2091,299 -2091,1338l0 1792c0,1230 2210,1230 2210,1230 1278,0 2210,-490 2210,-490l0 -4981c0,-1302 -2210,-1350 -2210,-1350 -1135,0 -2091,454 -2091,454l0 669c0,1051 1792,1051 1792,1051l0 -1207zm0 2879c0,-358 346,-418 597,-418l0 2425c-251,12 -597,-60 -597,-406l0 -1601zm5232 -5316c0,-514 -382,-932 -932,-932 -550,0 -932,418 -932,932 0,514 382,932 932,932 550,0 932,-418 932,-920l0 -12zm24 1708l-1911 0 0 6582c0,0 1911,-12 1911,-1063l0 -5519zm3345 -227c-84,-12 -191,-12 -299,-12 0,0 -2210,48 -2210,1374l0 4074c0,1326 2329,1374 2329,1374 1278,0 2091,-502 2091,-502l0 -7920c0,-1051 -1911,-1075 -1911,-1075l0 2688zm-597 1386c0,-358 346,-430 597,-430l0 4886c-251,0 -597,-72 -597,-430l0 -4026z"/>
    <path id="1" class="fil4" d="M4461 7842l597 0 0 4145c0,0 1911,-24 1911,-1063l0 -8016 -1911 0 0 3930 -597 0 0 -4169c0,0 -1911,24 -1911,1075l0 8028 1911 0 0 -3930zm5256 -36c382,0 597,0 597,358l0 3823c0,0 1911,-24 1911,-1063l0 -2783c0,-335 -430,-812 -824,-812 299,0 824,-550 824,-896l0 -2317c0,-1445 -1840,-1374 -2329,-1374 -1278,0 -2091,502 -2091,502l0 8505 1911 0 0 -3942zm597 -1422c0,490 -155,466 -597,466l0 -3130c251,0 597,72 597,418l0 2246zm4539 -251c251,-12 597,60 597,406l0 1218c-72,-84 -299,-131 -418,-131 -1147,0 -2091,299 -2091,1338l0 1792c0,1230 2210,1230 2210,1230 1278,0 2210,-490 2210,-490l0 -4981c0,-1302 -2210,-1350 -2210,-1350 -1135,0 -2091,454 -2091,454l0 669c0,1051 1792,1051 1792,1051l0 -1207zm0 2879c0,-358 346,-418 597,-418l0 2425c-251,12 -597,-60 -597,-406l0 -1601zm5232 -5316c0,-514 -382,-932 -932,-932 -550,0 -932,418 -932,932 0,514 382,932 932,932 550,0 932,-418 932,-920l0 -12zm24 1708l-1911 0 0 6582c0,0 1911,-12 1911,-1063l0 -5519zm3345 -227c-84,-12 -191,-12 -299,-12 0,0 -2210,48 -2210,1374l0 4074c0,1326 2329,1374 2329,1374 1278,0 2091,-502 2091,-502l0 -7920c0,-1051 -1911,-1075 -1911,-1075l0 2688zm-597 1386c0,-358 346,-430 597,-430l0 4886c-251,0 -597,-72 -597,-430l0 -4026z"/>
   </g>
  </g>
 </g>
</svg>
